<?xml version="1.0" encoding="utf-8"?>
<svg width="166" height="166" viewBox="0 0 166 166" xmlns="http://www.w3.org/2000/svg">
  <g id="svgGroup" stroke-linecap="round" fill-rule="evenodd" font-size="9pt" stroke="#000" stroke-width="0.25mm" fill="#000" style="stroke:#000;stroke-width:0.25mm;fill:#000" transform="matrix(1, 0, 0, 1, -0.18868, 44.652603)">
    <path d="M 2.9 71 L 0 71 L 0 1 L 2.9 1 L 2.9 71 Z M 44.9 1 L 2.748 51.077 L 2.946 47.614 L 41.3 1 L 44.9 1 Z M 47.6 71 L 43.9 71 L 17.18 33.958 L 18.502 32.362 L 47.6 71 Z" id="0" vector-effect="non-scaling-stroke" fill="#30ba78" stroke="#30ba78"/>
    <path d="M 54.8 64.1 L 56.7 61.9 C 58.633 63.767 61.183 65.467 64.35 67 C 66.83 68.201 69.872 68.932 73.477 69.192 C 74.516 69.265 75.558 69.302 76.6 69.3 C 80.6 69.3 84.117 68.6 87.15 67.2 C 88.688 66.503 90.124 65.601 91.42 64.518 C 92.498 63.609 93.45 62.561 94.25 61.4 C 95.85 59.07 96.733 56.322 96.79 53.496 C 96.797 53.297 96.8 53.099 96.8 52.9 C 96.8 48.167 94.917 44.333 91.15 41.4 C 87.383 38.467 82.133 37 75.4 37 L 66.1 37 L 66.1 34.2 L 75.3 34.2 C 76.906 34.208 78.511 34.084 80.097 33.829 C 81.868 33.535 83.488 33.066 84.957 32.423 C 85.293 32.276 85.624 32.118 85.95 31.95 C 87.368 31.229 88.685 30.323 89.865 29.256 C 90.91 28.304 91.814 27.207 92.55 26 C 94.05 23.533 94.8 20.833 94.8 17.9 C 94.8 13.167 93.083 9.467 89.65 6.8 C 87.061 4.789 83.895 3.537 80.151 3.042 C 79.056 2.898 77.911 2.818 76.716 2.803 C 76.577 2.801 76.439 2.8 76.3 2.8 C 74.7 2.793 73.102 2.902 71.518 3.126 C 69.271 3.453 67.265 4.028 65.5 4.85 C 64.644 5.247 63.802 5.673 62.975 6.127 C 61.421 6.986 60.174 7.838 59.235 8.683 C 59.156 8.754 59.077 8.827 59 8.9 L 57.3 6.7 C 57.957 6.103 58.657 5.555 59.394 5.06 C 60.149 4.547 60.992 4.037 61.925 3.531 C 62.801 3.057 63.694 2.614 64.6 2.2 C 66.244 1.46 67.971 0.918 69.743 0.585 C 71.742 0.195 73.928 0 76.3 0 C 78.262 -0.009 80.221 0.165 82.15 0.521 C 83.973 0.858 85.752 1.405 87.45 2.15 C 89.086 2.862 90.616 3.797 91.996 4.929 C 93.142 5.877 94.153 6.978 95 8.2 C 96.308 10.112 97.156 12.3 97.48 14.594 C 97.629 15.589 97.703 16.594 97.7 17.6 C 97.7 21 96.833 24.117 95.1 26.95 C 93.707 29.203 91.829 31.117 89.603 32.553 C 88.94 32.988 88.255 33.388 87.55 33.75 C 84.462 35.341 80.462 35.327 76.12 35.43 C 75.818 35.437 75.802 36.3 75.5 36.3 L 76.146 35.391 C 78.006 35.489 79.219 35.366 81.066 35.244 C 83.044 35.114 84.846 35.771 86.506 36.304 C 87.268 36.547 88.017 36.829 88.75 37.15 C 92.317 38.717 95.033 40.883 96.9 43.65 C 98.713 46.347 99.687 49.52 99.697 52.77 C 99.699 52.88 99.7 52.99 99.7 53.1 C 99.717 55.096 99.402 57.081 98.767 58.973 C 98.282 60.386 97.604 61.724 96.75 62.95 C 95.171 65.203 93.119 67.084 90.737 68.462 C 90.028 68.879 89.298 69.259 88.55 69.6 C 85.05 71.2 81.033 72 76.5 72 C 72.365 72 68.774 71.507 65.728 70.521 C 64.918 70.26 64.124 69.953 63.35 69.6 C 61.899 68.942 60.489 68.196 59.129 67.366 C 57.712 66.494 56.447 65.567 55.334 64.586 C 55.153 64.427 54.975 64.265 54.8 64.1 Z" id="1" vector-effect="non-scaling-stroke" fill="#ff5a2b" stroke="#ff5a2b"/>
    <path d="M 121.3 71 L 118.4 71 L 118.4 1 L 121.3 1 L 121.3 71 Z M 163.3 1 L 121.317 51.24 L 121.323 47.013 L 159.7 1 L 163.3 1 Z M 166 71 L 162.3 71 L 135.479 34.213 L 137.409 31.905 L 166 71 Z" id="2" vector-effect="non-scaling-stroke" fill="#30ba78" stroke="#30ba78"/>
  </g>
</svg>